<?xml version="1.0" encoding="UTF-8"?>
<svg version="1.1" xmlns="http://www.w3.org/2000/svg" width="48" height="48">
<path d="M0 0 C4.11628873 -0.3293031 6.56903702 -0.2114158 10.3125 1.625 C13.91227252 4.80619432 14.65017623 7.26700182 15.25 11.953125 C15.65722645 18.62145814 12.52781736 22.19583993 8.375 27.125 C6.00127171 29.75771785 6.00127171 29.75771785 4.9375 32.25 C3.7053452 34.5500223 2.31260151 34.87873866 0 36 C-1.04625409 37.29735507 -2.04701223 38.63266972 -3 40 C-4.77312922 42.2522045 -5.6275101 42.92982922 -8.48828125 43.46875 C-17.08190801 43.56383854 -17.08190801 43.56383854 -20.6875 41.3125 C-23.43397628 38.50177866 -23.57328193 35.50612927 -23.8125 31.6875 C-23.61194253 26.7627 -22.88792167 24.09271556 -19.5625 20.4375 C-18.92441406 19.85871094 -18.28632813 19.27992187 -17.62890625 18.68359375 C-15.771136 16.76345232 -15.60372023 15.53978854 -15 13 C-13.02053408 11.63636792 -11.0180755 10.30581356 -9 9 C-6.99823785 6.72772946 -5.35166948 4.70333897 -4 2 C-1.9375 1.375 -1.9375 1.375 0 1 C0 0.67 0 0.34 0 0 Z " fill="#26423A" transform="translate(28,2)"/>
<path d="M0 0 C4.66666667 4 9.33333333 8 14 12 C11.9997834 16.26898081 9.33272321 20.8336384 5 23 C0.74607223 23.50094516 -2.80486114 23.74696179 -6.5 21.4375 C-8.51221621 18.16764866 -8.93382801 15.83797545 -9 12 C-7.18562934 6.7703434 -3.96076115 3.6967104 0 0 Z " fill="#61C389" transform="translate(16,18)"/>
<path d="M0 0 C3.70405918 2.49457047 4.78098474 3.94474465 5.6875 8.3125 C4.60582826 14.11419389 1.09710345 17.90289655 -3 22 C-6.75984014 21.94177239 -8.74615293 19.56783026 -11.26171875 17.00195312 C-11.75285156 16.48568359 -12.24398438 15.96941406 -12.75 15.4375 C-13.25660156 14.91736328 -13.76320313 14.39722656 -14.28515625 13.86132812 C-15.53034405 12.58089916 -16.76611502 11.29132446 -18 10 C-17.06862408 8.70391053 -16.1296434 7.41328368 -15.1875 6.125 C-14.66542969 5.40570312 -14.14335937 4.68640625 -13.60546875 3.9453125 C-9.7827209 -0.68663015 -5.6104046 -0.94325541 0 0 Z " fill="#F8FBFB" transform="translate(36,7)"/>
<path d="M0 0 C0.33 0.99 0.66 1.98 1 3 C-0.3984375 4.796875 -0.3984375 4.796875 -2.375 6.75 C-5.74127171 10.41923617 -7.19464513 12.84190395 -7 18 C-5.86349056 20.37633793 -4.85558971 22.14441029 -3 24 C1.49571006 24.56660809 4.95436754 24.63647193 8.875 22.25 C10.76463066 20.2492146 12.45543736 18.27619758 14 16 C12.62845496 13.04590299 11.01136276 10.55991624 9 8 C12.44795223 9.53242321 15.2199038 11.44531701 18 14 C18.8125 16.25 18.8125 16.25 19 18 C17.6078125 18.86625 17.6078125 18.86625 16.1875 19.75 C13.34267816 21.75810953 11.90562637 23.18693251 10 26 C8.23054402 28.25052682 7.36863509 28.9305554 4.51171875 29.46875 C-4.08190801 29.56383854 -4.08190801 29.56383854 -7.6875 27.3125 C-10.37379677 24.53139276 -10.63547366 21.5789461 -10.9375 17.8125 C-10.66975557 10.89051896 -7.91764187 7.53511418 -3.06640625 2.828125 C-2.38449219 2.22484375 -1.70257813 1.6215625 -1 1 C-0.67 0.67 -0.34 0.34 0 0 Z " fill="#184232" transform="translate(15,16)"/>
<path d="M0 0 C3.3 0.66 6.6 1.32 10 2 C10 2.33 10 2.66 10 3 C9.41992188 3.0515625 8.83984375 3.103125 8.2421875 3.15625 C4.45466309 3.70625354 1.84847691 4.16009357 -0.93359375 6.9140625 C-2.38077155 8.8783374 -3.70091753 10.93479197 -5 13 C-3.02 15.31 -1.04 17.62 1 20 C-2 20 -2 20 -3.82421875 18.25 C-4.43910156 17.5075 -5.05398437 16.765 -5.6875 16 C-6.31011719 15.2575 -6.93273437 14.515 -7.57421875 13.75 C-8.04472656 13.1725 -8.51523438 12.595 -9 12 C-9.99 12.66 -10.98 13.32 -12 14 C-10.51612027 10.08795343 -8.5101559 9.08937851 -5 7 C-3.01324604 4.73730799 -1.34583653 2.69167305 0 0 Z " fill="#314846" transform="translate(24,4)"/>
<path d="M0 0 C0.99 0.66 1.98 1.32 3 2 C3.64704982 5.59472123 3.60221174 7.97789751 1.72265625 11.16796875 C-0.36277055 13.96723357 -2.53171429 16.53171429 -5 19 C-7.125 18.625 -7.125 18.625 -9 18 C-4 13 -4 13 -2.375 11.65625 C-0.5066796 9.40577315 -0.50008783 7.70135259 -0.3125 4.8125 C-0.24675781 3.91144531 -0.18101563 3.01039062 -0.11328125 2.08203125 C-0.07589844 1.39496094 -0.03851563 0.70789062 0 0 Z " fill="#B9CDC9" transform="translate(38,10)"/>
<path d="M0 0 C0.33 0.99 0.66 1.98 1 3 C-0.328125 4.7265625 -0.328125 4.7265625 -2.25 6.625 C-6.07354642 10.7309241 -7.68753285 14.60013516 -9 20 C-9.33 20 -9.66 20 -10 20 C-10.72401842 15.01231755 -10.99830086 12.41425956 -8.03125 8.2109375 C-5.76018079 5.71707352 -3.44170709 3.32631451 -1 1 C-0.67 0.67 -0.34 0.34 0 0 Z " fill="#154534" transform="translate(15,16)"/>
<path d="M0 0 C5.69297345 -0.45543788 8.54261819 0.41235123 13 4 C13 4.33 13 4.66 13 5 C8.71 4.67 4.42 4.34 0 4 C0 2.68 0 1.36 0 0 Z " fill="#192F2B" transform="translate(28,2)"/>
<path d="M0 0 C0.66 0 1.32 0 2 0 C4.3573056 3.30022784 5.23627797 6.07228672 6 10 C6.66 10.33 7.32 10.66 8 11 C4.12867972 10.42647107 1.91827204 8.51295648 -1 6 C-0.67 4.02 -0.34 2.04 0 0 Z " fill="#153729" transform="translate(6,34)"/>
<path d="M0 0 C0.66 0.33 1.32 0.66 2 1 C0.32258336 4.96480297 -2.12126862 7.84041677 -5 11 C-5.99 11.33 -6.98 11.66 -8 12 C-7.67 10.35 -7.34 8.7 -7 7 C-6.01 7 -5.02 7 -4 7 C-3.67 6.01 -3.34 5.02 -3 4 C-2.03126968 2.64377755 -1.03565785 1.30582947 0 0 Z " fill="#5BAA81" transform="translate(28,29)"/>
<path d="M0 0 C0.66 0 1.32 0 2 0 C1.67 1.98 1.34 3.96 1 6 C1.66 6 2.32 6 3 6 C3 7.32 3 8.64 3 10 C1.35 10 -0.3 10 -2 10 C-2.33 8.68 -2.66 7.36 -3 6 C-2.34 6 -1.68 6 -1 6 C-0.67 4.02 -0.34 2.04 0 0 Z " fill="#7CD39E" transform="translate(11,28)"/>
<path d="M0 0 C3.98175544 2.10148204 6.35039045 4.36905358 9 8 C6 8 6 8 4.39453125 6.7578125 C3.87246094 6.21898437 3.35039062 5.68015625 2.8125 5.125 C2.28269531 4.59132813 1.75289062 4.05765625 1.20703125 3.5078125 C0 2 0 2 0 0 Z " fill="#2C5E44" transform="translate(16,16)"/>
<path d="M0 0 C0.66 0.33 1.32 0.66 2 1 C1.34 3.97 0.68 6.94 0 10 C-0.33 10 -0.66 10 -1 10 C-1.02689216 8.52093108 -1.04634621 7.04172517 -1.0625 5.5625 C-1.07410156 4.73878906 -1.08570313 3.91507813 -1.09765625 3.06640625 C-1 1 -1 1 0 0 Z " fill="#1D483D" transform="translate(6,26)"/>
<path d="M0 0 C0.99 0.99 1.98 1.98 3 3 C1.6875 4.5 1.6875 4.5 0 6 C-0.99 6 -1.98 6 -3 6 C-2.42655063 3.13275314 -2.1385485 2.1385485 0 0 Z " fill="#69BD86" transform="translate(16,18)"/>
<path d="M0 0 C1.32 0.33 2.64 0.66 4 1 C4 2.32 4 3.64 4 5 C2.68 4.67 1.36 4.34 0 4 C0 2.68 0 1.36 0 0 Z " fill="#54CC8A" transform="translate(12,30)"/>
<path d="M0 0 C0.33 0 0.66 0 1 0 C1 2.97 1 5.94 1 9 C0.67 9 0.34 9 0 9 C0 6.03 0 3.06 0 0 Z " fill="#12433F" transform="translate(3,27)"/>
<path d="M0 0 C0.33 0 0.66 0 1 0 C1 2.97 1 5.94 1 9 C0.67 9 0.34 9 0 9 C0 6.03 0 3.06 0 0 Z " fill="#093827" transform="translate(44,12)"/>
<path d="M0 0 C1.65 0 3.3 0 5 0 C5 0.33 5 0.66 5 1 C3.35 1 1.7 1 0 1 C0 0.67 0 0.34 0 0 Z " fill="#0E3729" transform="translate(14,45)"/>
<path d="" fill="#000516" transform="translate(0,0)"/>
<path d="" fill="#000100" transform="translate(0,0)"/>
<path d="" fill="#12361D" transform="translate(0,0)"/>
<path d="" fill="#164236" transform="translate(0,0)"/>
<path d="M0 0 C2 1 2 1 2 1 Z " fill="#1A4B41" transform="translate(26,3)"/>
<path d="" fill="#18503B" transform="translate(0,0)"/>
<path d="" fill="#115152" transform="translate(0,0)"/>
<path d="" fill="#1C564C" transform="translate(0,0)"/>
<path d="" fill="#0F493F" transform="translate(0,0)"/>
<path d="" fill="#21353A" transform="translate(0,0)"/>
<path d="" fill="#00020A" transform="translate(0,0)"/>
<path d="" fill="#153531" transform="translate(0,0)"/>
<path d="" fill="#163431" transform="translate(0,0)"/>
<path d="" fill="#18423A" transform="translate(0,0)"/>
<path d="" fill="#1B403A" transform="translate(0,0)"/>
<path d="" fill="#153931" transform="translate(0,0)"/>
<path d="" fill="#154034" transform="translate(0,0)"/>
<path d="" fill="#0D4132" transform="translate(0,0)"/>
<path d="" fill="#3B4947" transform="translate(0,0)"/>
<path d="" fill="#000000" transform="translate(0,0)"/>
<path d="" fill="#000400" transform="translate(0,0)"/>
<path d="" fill="#21614E" transform="translate(0,0)"/>
<path d="" fill="#1D6254" transform="translate(0,0)"/>
<path d="" fill="#214539" transform="translate(0,0)"/>
<path d="" fill="#0A3A37" transform="translate(0,0)"/>
<path d="" fill="#163B3A" transform="translate(0,0)"/>
<path d="" fill="#033832" transform="translate(0,0)"/>
<path d="" fill="#033832" transform="translate(0,0)"/>
<path d="" fill="#000C07" transform="translate(0,0)"/>
<path d="" fill="#1D5144" transform="translate(0,0)"/>
<path d="" fill="#274A45" transform="translate(0,0)"/>
<path d="" fill="#195447" transform="translate(0,0)"/>
<path d="" fill="#0D3E35" transform="translate(0,0)"/>
<path d="" fill="#000301" transform="translate(0,0)"/>
<path d="" fill="#184E43" transform="translate(0,0)"/>
<path d="" fill="#1D4F45" transform="translate(0,0)"/>
</svg>



